<?xml version="1.0" standalone="no"?><!DOCTYPE svg PUBLIC "-//W3C//DTD SVG 1.1//EN" "http://www.w3.org/Graphics/SVG/1.1/DTD/svg11.dtd"><svg t="1754493168104" class="icon" viewBox="0 0 1024 1024" version="1.1" xmlns="http://www.w3.org/2000/svg" p-id="2751" xmlns:xlink="http://www.w3.org/1999/xlink" width="16" height="16"><path d="M225.879065 1023.989352l0.649536-452.418314 345.042437-345.042437 452.418314-0.649536z m148.168914-333.393368a130.812441 130.812441 0 0 1-5.100461 44.583776 173.37307 173.37307 0 0 1 24.213878 2.342592 148.115674 148.115674 0 0 0 3.790739-45.073591 85.493943 85.493943 0 0 0 29.814802-7.666663 115.553651 115.553651 0 0 0 26.300914-16.078697q11.318976-9.327774 40.249982-37.556001a178.271216 178.271216 0 0 1-11.681014-23.724064q-11.46805 13.374068-25.938877 27.844895-33.137022 33.126374-62.11062 35.532855a142.91938 142.91938 0 0 0-17.037029-40.942112 153.64206 153.64206 0 0 0-18.229622-25.427766l-14.374993-14.374993-29.356931 29.367579q-6.814812-11.255088-14.768975-23.05323l-17.431011 13.608327a246.142481 246.142481 0 0 1 39.291649 78.924038 250.05035 250.05035 0 0 1 26.354155 9.796292 200.770743 200.770743 0 0 0-5.537035-19.965269 137.850864 137.850864 0 0 0 31.550449 11.851384z m266.118398-277.81006l38.524983 38.514335 18.261566-18.250918-38.535631-38.53563 27.024988-27.01434 8.273607 8.284255 17.782399-17.782399-67.189784-67.179136-44.764795 44.775442-21.147212-21.147212-18.282862 18.282862 21.147212 21.136564-44.764794 44.764795 67.487932 67.487932 17.771751-17.771751-8.582403-8.582403z m-101.924028 170.359646l82.374037-82.384685-13.629623-13.629624-32.668504 32.657856-10.424532-10.413884 27.376376-27.376377-13.629623-13.629623-27.376377 27.365728-8.624996-8.614348 26.78008-26.769432L506.319216 398.240561l-68.925432 68.925431 62.11062 62.110621 26.769432-26.780081 8.624996 8.624996-27.376376 27.365729 13.629623 13.640271 27.376377-27.365728 10.413884 10.403236-29.772209 29.782857a226.390175 226.390175 0 0 1-16.291659-16.504622q-4.227313 7.815737-8.955089 16.014807l-25.555544-25.555544 11.169903-11.159254-14.832864-14.832864-11.159254 11.159254-25.129619-25.129618 12.053699-12.04305-15.056475-15.056475-39.430075 39.419427 15.056475 15.056475 12.011106-12.000458 25.129618 25.129618-11.531939 11.521292 14.832863 14.832863 11.53194-11.531939 29.431468 29.431468-11.074069 17.537492 20.35925 13.629624q12.373143-24.118045 23.862489-44.338869z m-110.048561 71.768486l16.334252-16.334252-94.17218-94.17218-16.334252 16.334252z m-43.135629-76.038392a503.987272 503.987272 0 0 1 49.812015 10.424533l4.344442-23.74536q-26.599062-4.75972-50.099514-7.123608z m-54.976364 69.319413q-2.321295-4.855553-4.898146-9.700458l17.824992-17.83564a119.17402 119.17402 0 0 1 27.195358 47.703682A141.620306 141.620306 0 0 1 330.092443 648.205725z m311.852174-270.207285l-25.821748-25.832396 27.01434-27.024987 25.832396 25.832395z m-45.275905 45.265257l-25.821748-25.821747 26.993043-26.993044 25.821748 25.832396z m-68.414321 50.4722l-11.478699-11.489347 11.75555-11.75555 11.489347 11.478698z m-27.099525 27.099525l-11.489347-11.478699 11.744902-11.744902 11.478699 11.489347z m3.173147-51.036551l-11.372217-11.361569 11.766198-11.766199 11.372217 11.372217z m-27.099525 27.110172l-11.372217-11.372217 11.734254-11.734254 11.372217 11.372218z" fill="#4D94FF" p-id="2752"></path></svg>